HIERARCHY
ROOT Hips
{
    OFFSET 13.45751953125 89.5123176574707 -17.967666625976562
    CHANNELS 6 Xposition Yposition Zposition Zrotation Xrotation Yrotation
    JOINT RightUpLeg
    {
        OFFSET -13.45751953125 0.0 0.0
        CHANNELS 3 Zrotation Xrotation Yrotation
        JOINT RightLeg
        {
            OFFSET 0.0 -44.5931510925293 0.0
            CHANNELS 3 Zrotation Xrotation Yrotation
            JOINT RightFoot
            {
                OFFSET 0.0 -44.919166564941406 0.0
                CHANNELS 3 Zrotation Xrotation Yrotation
                End Site
                {
                    OFFSET 0.0 0.0 17.967666625976562
                }
            }
        }
    }
    JOINT LeftUpLeg
    {
        OFFSET 13.45751953125 0.0 0.0
        CHANNELS 3 Zrotation Xrotation Yrotation
        JOINT LeftLeg
        {
            OFFSET 0.0 -44.5931510925293 0.0
            CHANNELS 3 Zrotation Xrotation Yrotation
            JOINT LeftFoot
            {
                OFFSET 0.0 -44.919166564941406 0.0
                CHANNELS 3 Zrotation Xrotation Yrotation
                End Site
                {
                    OFFSET 0.0 0.0 17.967666625976562
                }
            }
        }
    }
    JOINT Spine
    {
        OFFSET 0.0 24.11297035217285 0.0
        CHANNELS 3 Zrotation Xrotation Yrotation
        JOINT Spine3
        {
            OFFSET 0.0 26.024946212768555 0.0
            CHANNELS 3 Zrotation Xrotation Yrotation
            JOINT Neck
            {
                OFFSET 0.0 11.873250961303711 0.0
                CHANNELS 3 Zrotation Xrotation Yrotation
                End Site
                {
                    OFFSET 0.0 4.749300479888916 0.0
                }
            }
            JOINT LeftArm
            {
                OFFSET 14.50822639465332 0.0 0.0
                CHANNELS 3 Zrotation Xrotation Yrotation
                JOINT LeftForeArm
                {
                    OFFSET 29.005714416503906 0.0 0.0
                    CHANNELS 3 Zrotation Xrotation Yrotation
                    JOINT LeftHand
                    {
                        OFFSET 22.188945770263672 0.0 0.0
                        CHANNELS 3 Zrotation Xrotation Yrotation
                        End Site
                        {
                            OFFSET 8.875577926635742 0.0 0.0
                        }
                    }
                }
            }
            JOINT RightArm
            {
                OFFSET -14.50822639465332 0.0 0.0
                CHANNELS 3 Zrotation Xrotation Yrotation
                JOINT RightForeArm
                {
                    OFFSET -29.005714416503906 0.0 0.0
                    CHANNELS 3 Zrotation Xrotation Yrotation
                    JOINT RightHand
                    {
                        OFFSET -22.188945770263672 0.0 0.0
                        CHANNELS 3 Zrotation Xrotation Yrotation
                        End Site
                        {
                            OFFSET -8.875577926635742 0.0 0.0
                        }
                    }
                }
            }
        }
    }
}
MOTION
Frames: 4
Frame Time: 0.03333333333333333
-5.8894056564895436e-05 93.17008209228516 -0.0009145846124738455 -4.199082539691275 -12.171244829529297 -15.295887659241982 -1.2658678449103136 18.951185699454573 -1.0807594275070587 -2.975885874411861 12.051290685955413 -0.033986183152662275 -3.122924914977871e-32 3.1308585145656493e-15 1.1430118386509513e-15 6.465480256337258 19.142341264816775 -3.6720735359953265 0.07758607775532074 11.683875679614658 -2.1572513630432786 -1.034509288605506e-33 1.9878466759146977e-16 5.963540027744093e-16 2.6803062905394617 25.28448916600519 -3.1229018041132646 2.789791815219595e-08 -2.969003837400041e-07 -2.4861267660613438 2.030262567647203 0.13007910542126586 -177.1032137008247 138.0734620659466 -36.05606426412803 -130.81151429353625 -5.824890632090646e-06 -2.41359483258245e-06 126.73847740677459 0.0 0.0 0.0 -132.17025994984078 -34.13461478505529 132.19552384239103 3.6344635755978153e-06 1.950035620857449e-06 -129.62621407536872 6.3611093629270335e-15 0.0 0.0
-7.17324874131009e-05 93.17007446289062 -0.0009293695329688489 -4.256477205988955 -11.951140939872984 -15.343470719255969 -1.5484424774654109 18.686213454041663 -0.9657437093904265 -2.440838408628774 12.129533429100405 -0.08549998974713194 -3.975693351829396e-16 -4.9696166897867443e-17 -1.1927080055488188e-15 6.881376611764372 18.84872336289027 -3.7471392733587163 -0.538517409323038 12.052569997978035 -2.174054938104878 7.951386703658792e-16 6.896728590703373e-33 9.93923337957349e-16 2.775056633422349 25.178862178670084 -3.138695736718955 -2.8611704789455404e-07 3.3980426861040893e-07 -2.3065961360766005 2.4182203226770684 -0.2708021552953483 -177.7236253689717 138.37104871308108 -35.85061756463287 -130.34138375755052 -4.3152459684972676e-07 6.776163994727658e-07 126.77145815214442 0.0 0.0 -3.1805546814635168e-15 -131.88468116514395 -33.13820967179989 132.1380069458192 4.798607647191352e-06 -2.3282648929201335e-06 -129.95574314999706 0.0 0.0 -3.1805546814635168e-15
-5.145457180333324e-05 93.17007446289062 -0.0009318517404608428 -4.258845642044663 -11.697496912354943 -15.62858514055632 -1.9952829842624569 18.157016484651425 -0.8146560140360368 -1.9257860601286434 12.485381283821773 -0.11924524649321971 0.0 0.0 1.3914926731402884e-15 7.118480038354844 18.47371563296226 -3.769118419925924 -1.326251754725387 12.51629099991866 -2.1460592920822927 7.951386703658791e-16 -1.987846675914698e-16 -1.9878466759146976e-15 2.802519500073931 25.236828007395424 -3.1779209679427067 1.136744851846963e-07 -6.412210233517091e-07 -2.217854992120065 2.602660007455025 -0.7173704859392166 -178.20720248721807 138.45019279507991 -35.41361874610359 -130.2350712332198 -4.166994676534802e-06 -5.867989099816054e-06 127.07455533009822 6.3611093629270335e-15 -1.7655625192200634e-31 -3.1805546814635168e-15 -132.1674112042135 -32.748495177197455 131.6371368205258 6.61563043812232e-07 2.7710818206111607e-06 -129.74499800103897 0.0 -3.1805546814635168e-15 0.0
-3.8652455259580165e-05 93.1700668334961 -0.0009341836557723582 -4.118767219332499 -11.397713318122937 -15.762939087895884 -2.752677387118777 17.559860506766135 -0.6270001740468014 -0.899306847403165 12.827544214692434 -0.23898303090266743 -9.655420026984722e-33 -3.1805546814635168e-15 -3.4787316828507215e-16 7.251219155933553 18.158811485619985 -3.822329230005419 -2.254817688802482 12.918578184792867 -2.0826149476913702 -2.3854160110976376e-15 1.987846675914698e-16 -5.963540027744094e-16 2.812657562644789 25.16381693852575 -3.2695575568975515 -2.697477486235463e-07 -1.515597822908584e-06 -2.1651337117382297 2.602402789805247 -0.8857501338108317 -177.98926414986727 138.56526901537265 -35.2177202373767 -130.05169320094936 2.4114072297813898e-06 6.211045423463542e-07 127.36538278700272 3.180554681463516e-15 -8.827812596100317e-32 -3.180554681463516e-15 -132.20214209128514 -32.332000307768624 131.29848166268604 -1.8136418929504322e-06 -1.8796381211008455e-06 -129.93074439138792 1.3241718894150476e-31 -3.1805546814635164e-15 4.770832022195274e-15
